<?xml version="1.0" encoding="utf-8"?>
<!-- Generator: Adobe Illustrator 25.4.1, SVG Export Plug-In . SVG Version: 6.00 Build 0)  -->
<svg version="1.1" xmlns="http://www.w3.org/2000/svg" xmlns:xlink="http://www.w3.org/1999/xlink" x="0px" y="0px"
	 viewBox="0 0 1000 1000" style="enable-background:new 0 0 1000 1000;" xml:space="preserve">
<style type="text/css">
	.st0{display:none;}
	.st1{display:inline;}
	.st2{fill:none;stroke:#FFFFFF;stroke-width:46.5517;stroke-miterlimit:10;}
</style>
<g id="レイヤー_1のコピー" class="st0">
	<rect x="-11" y="-17" class="st1" width="1031" height="1031"/>
</g>
<g id="レイヤー_1">
	<g>
		<path class="st2" d="M724.62,109.47c48.72,27.93,91.72,64.72,126.8,108.16"/>
		<path class="st2" d="M395.26,62.68c33.96-8.19,69.43-12.54,105.9-12.54c48.29,0,94.81,7.61,138.41,21.69"/>
		<path class="st2" d="M395.26,62.68"/>
		<path class="st2" d="M119.2,262.15c44.66-71.52,108.84-129.59,185.08-166.75"/>
		<path class="st2" d="M61.68,597.7c-6.91-31.36-10.55-63.94-10.55-97.37c0-55.28,9.96-108.22,28.18-157.15"/>
		<path class="st2" d="M137.25,765.24c-21.71-29.79-39.85-62.36-53.8-97.06"/>
		<path class="st2" d="M277.71,891.2c-14.78-8.47-29.03-17.76-42.69-27.8"/>
		<path class="st2" d="M413.14,941.92c-48.39-9.6-93.98-26.95-135.43-50.72"/>
		<path class="st2" d="M712.08,898.12c-57.72,30.69-122.92,49.18-192.14,52.02"/>
		<path class="st2" d="M926.91,646.59c-26.55,77.36-73.58,145.2-134.61,197.05"/>
		<path class="st2" d="M951.13,507.95c-0.13,7.67-0.45,15.29-0.95,22.86"/>
		<path class="st2" d="M891.16,275.54c29.21,50.61,48.86,107.44,56.48,168.01"/>
		<path class="st2" d="M240.56,346.85"/>
	</g>
	<g>
		<path class="st2" d="M161.16,393.01c3.65-11.59,7.89-22.92,12.66-33.96"/>
		<path class="st2" d="M146.22,467.5c2.34-25.72,7.42-50.64,14.94-74.48"/>
		<path class="st2" d="M211.97,708.41C179,662.8,156.59,609.05,148.3,550.75"/>
		<path class="st2" d="M306.79,798.7c-14.33-9.32-27.95-19.64-40.75-30.87"/>
		<path class="st2" d="M328.15,811.55c-7.28-4.04-14.41-8.33-21.36-12.85"/>
		<path class="st2" d="M654.06,821.15c-43.81,21.03-92.6,33.35-144.11,34.71"/>
		<path class="st2" d="M844.68,589.74c-19.26,74.33-61.95,139.23-119.7,186.34"/>
		<path class="st2" d="M822.26,348.67c21.67,45.97,33.78,97.34,33.78,151.53c0,6.43-0.17,12.81-0.51,19.15"/>
		<path class="st2" d="M711.16,213.61c22.14,16.32,42.32,35.15,60.13,56.07"/>
		<path class="st2" d="M500.39,144.42c49.11,0,95.89,9.96,138.44,27.96"/>
		<path class="st2" d="M231.7,267.1c32.85-37.86,73.57-68.71,119.61-90.01"/>
	</g>
	<g>
		<path class="st2" d="M281.83,371.05c7.41-12.57,15.88-24.45,25.27-35.51"/>
		<path class="st2" d="M246.68,500.21c0-17.54,1.77-34.67,5.15-51.21"/>
		<path class="st2" d="M492.78,754.61c-83.24-2.69-156.37-45.36-200.83-109.45"/>
		<path class="st2" d="M598.22,735.56c-5.07,2.1-10.23,4.04-15.47,5.81"/>
		<path class="st2" d="M603.04,733.5c-1.6,0.7-3.21,1.38-4.82,2.05"/>
		<path class="st2" d="M739.4,589.71c-16.41,43.71-44.5,81.7-80.47,110.18"/>
		<path class="st2" d="M729.06,386.94c16.97,34.11,26.52,72.57,26.52,113.26c0,6.32-0.23,12.59-0.68,18.8"/>
		<path class="st2" d="M620.97,275.61c28.37,15.18,53.53,35.59,74.2,59.93"/>
		<path class="st2" d="M411.8,261.8c27.79-10.43,57.89-16.13,89.33-16.13c18.54,0,36.61,1.98,54.02,5.75"/>
	</g>
</g>
</svg>
