<?xml version="1.0" encoding="utf-8"?>
<!-- Generator: Adobe Illustrator 25.4.1, SVG Export Plug-In . SVG Version: 6.00 Build 0)  -->
<svg version="1.1" xmlns="http://www.w3.org/2000/svg" xmlns:xlink="http://www.w3.org/1999/xlink" x="0px" y="0px"
	 viewBox="0 0 64 64" style="enable-background:new 0 0 64 64;" xml:space="preserve">
<style type="text/css">
	.st0{fill:none;stroke:#FFFFFF;stroke-width:3;stroke-miterlimit:10;}
</style>
<g id="背景">
	<rect width="64" height="64"/>
</g>
<g id="ファビコン">
	<g>
		<path class="st0" d="M46.4,6.82c3.14,1.8,5.91,4.17,8.17,6.97"/>
		<path class="st0" d="M25.18,3.81C27.37,3.28,29.65,3,32,3c3.11,0,6.11,0.49,8.92,1.4"/>
		<path class="st0" d="M25.18,3.81"/>
		<path class="st0" d="M7.39,16.66c2.88-4.61,7.01-8.35,11.93-10.75"/>
		<path class="st0" d="M3.68,38.29C3.23,36.27,3,34.17,3,32.01c0-3.56,0.64-6.97,1.82-10.13"/>
		<path class="st0" d="M8.55,49.08c-1.4-1.92-2.57-4.02-3.47-6.25"/>
		<path class="st0" d="M17.6,57.2c-0.95-0.55-1.87-1.14-2.75-1.79"/>
		<path class="st0" d="M26.33,60.47c-3.12-0.62-6.06-1.74-8.73-3.27"/>
		<path class="st0" d="M45.59,57.65c-3.72,1.98-7.92,3.17-12.38,3.35"/>
		<path class="st0" d="M59.44,41.44c-1.71,4.99-4.74,9.36-8.67,12.7"/>
		<path class="st0" d="M61,32.5c-0.01,0.49-0.03,0.99-0.06,1.47"/>
		<path class="st0" d="M57.14,17.53c1.88,3.26,3.15,6.92,3.64,10.83"/>
		<path class="st0" d="M15.21,22.12"/>
	</g>
	<g>
		<path class="st0" d="M10.09,25.1c0.24-0.75,0.51-1.48,0.82-2.19"/>
		<path class="st0" d="M9.13,29.9c0.15-1.66,0.48-3.26,0.96-4.8"/>
		<path class="st0" d="M13.37,45.42c-2.12-2.94-3.57-6.4-4.1-10.16"/>
		<path class="st0" d="M19.48,51.24c-0.92-0.6-1.8-1.27-2.63-1.99"/>
		<path class="st0" d="M20.85,52.07c-0.47-0.26-0.93-0.54-1.38-0.83"/>
		<path class="st0" d="M41.86,52.69c-2.82,1.36-5.97,2.15-9.29,2.24"/>
		<path class="st0" d="M54.14,37.77c-1.24,4.79-3.99,8.97-7.71,12.01"/>
		<path class="st0" d="M52.7,22.24c1.4,2.96,2.18,6.27,2.18,9.77c0,0.41-0.01,0.83-0.03,1.23"/>
		<path class="st0" d="M45.54,13.53c1.43,1.05,2.73,2.27,3.87,3.61"/>
		<path class="st0" d="M31.95,9.08c3.16,0,6.18,0.64,8.92,1.8"/>
		<path class="st0" d="M14.64,16.98c2.12-2.44,4.74-4.43,7.71-5.8"/>
	</g>
	<g>
		<path class="st0" d="M17.87,23.68c0.48-0.81,1.02-1.58,1.63-2.29"/>
		<path class="st0" d="M15.6,32c0-1.13,0.11-2.23,0.33-3.3"/>
		<path class="st0" d="M31.46,48.4c-5.36-0.17-10.08-2.92-12.94-7.05"/>
		<path class="st0" d="M38.26,47.17c-0.33,0.14-0.66,0.26-1,0.37"/>
		<path class="st0" d="M38.57,47.04c-0.1,0.05-0.21,0.09-0.31,0.13"/>
		<path class="st0" d="M47.36,37.77c-1.06,2.82-2.87,5.27-5.19,7.1"/>
		<path class="st0" d="M46.69,24.71c1.09,2.2,1.71,4.68,1.71,7.3c0,0.41-0.01,0.81-0.04,1.21"/>
		<path class="st0" d="M39.72,17.53c1.83,0.98,3.45,2.29,4.78,3.86"/>
		<path class="st0" d="M26.24,16.64c1.79-0.67,3.73-1.04,5.76-1.04c1.19,0,2.36,0.13,3.48,0.37"/>
	</g>
</g>
</svg>
